<?xml version="1.0" encoding="utf-8"?>
<!-- Generator: Adobe Illustrator 24.0.0, SVG Export Plug-In . SVG Version: 6.00 Build 0)  -->
<svg version="1.1" id="Ebene_1" xmlns="http://www.w3.org/2000/svg" xmlns:xlink="http://www.w3.org/1999/xlink" x="0px" y="0px"
	 viewBox="0 0 8192 2068.396" style="enable-background:new 0 0 8192 2068.396;" xml:space="preserve">
<style type="text/css">
	.st0{fill:#FFFFFF;}
	.st1{fill:url(#SVGID_1_);}
</style>
<title>logo</title>
<g>
	<path class="st0" d="M3229.783,607.173c-113.656-102.283-261.41-153.427-443.261-153.433h-362.057v1136.554h362.057
		c181.851,0,329.605-51.147,443.261-153.442c113.642-102.292,170.468-240.57,170.479-414.836
		C3400.262,847.756,3343.436,709.475,3229.783,607.173 M3038.998,1271.252c-60.069,60.063-137.191,90.099-231.365,90.108h-131.511
		V682.683h131.511c94.165,0,171.286,30.036,231.365,90.107c60.079,60.072,90.12,143.147,90.123,249.227
		C3129.121,1128.116,3099.08,1211.194,3038.998,1271.252"/>
	<path class="st0" d="M3863.015,817.441c-118.007,0-213.534,35.717-286.581,107.152c-73.062,71.443-109.593,169.402-109.59,293.88
		c0,119.093,38.426,214.887,115.278,287.383c76.846,72.538,178.051,108.803,303.617,108.796
		c111.478,0,214.848-29.228,310.114-87.685l-89.3-185.092c-69.28,45.463-141.805,68.192-217.576,68.186
		c-112.588,0-176.449-45.46-191.581-136.381h537.428v-55.208c0-132.046-33.014-231.899-99.043-299.558
		c-66.048-67.636-156.97-101.46-272.769-101.474 M3699.017,1129.184c10.814-92.002,62.771-138.008,155.871-138.016
		c41.129,0,74.954,12.179,101.474,36.535c26.52,24.357,40.324,58.184,41.411,101.481L3699.017,1129.184z"/>
	<polygon class="st0" points="4812.819,840.166 4648.822,1314.269 4486.462,840.166 4215.321,840.166 4527.056,1590.294 
		4772.233,1590.294 5083.967,840.166 	"/>
	<path class="st0" d="M5795.113,926.226c-79.025-73.606-180.231-110.411-303.617-110.417c-122.324,0-222.987,36.805-301.988,110.417
		c-79.033,73.613-118.544,169.948-118.534,289.004c0,119.084,39.511,215.419,118.534,289.003
		c78.992,73.622,179.655,110.427,301.988,110.417c123.388,0,224.594-36.806,303.617-110.417
		c78.992-73.598,118.503-169.932,118.534-289.003C5913.646,1096.168,5874.136,999.834,5795.113,926.226 M5617.33,1342.681
		c-33.036,31.943-74.98,47.907-125.834,47.894c-49.804,0-91.475-16.234-125.014-48.704c-33.572-32.469-50.352-74.683-50.339-126.642
		c0-51.952,16.78-94.163,50.339-126.635c33.529-32.477,75.201-48.717,125.014-48.72c50.867,0,92.812,15.964,125.834,47.893
		c33.003,31.951,49.507,74.438,49.513,127.462C5666.843,1268.274,5650.338,1310.758,5617.33,1342.681"/>
	<path class="st0" d="M6322.78,539.792h-245.168V840.17h-146.123v204.582h146.125v292.251c0,168.85,83.888,253.278,251.665,253.286
		h102.284v-227.307h-27.599c-31.4,0-52.775-6.497-64.127-19.491c-11.367-12.986-17.05-37.34-17.05-73.063v-225.677h154.251V840.17
		h-154.251L6322.78,539.792z"/>
	<path class="st0" d="M6907.32,817.441c-118.006,0-213.534,35.717-286.581,107.152c-73.063,71.443-109.593,169.402-109.59,293.88
		c0,119.093,38.426,214.887,115.276,287.383c76.846,72.538,178.051,108.803,303.618,108.796c111.478,0,214.85-29.228,310.115-87.685
		l-89.299-185.092c-69.279,45.463-141.805,68.192-217.576,68.186c-112.588,0-176.449-45.46-191.581-136.381h537.429v-55.208
		c0-132.046-33.015-231.899-99.043-299.558C7114.041,851.279,7023.118,817.455,6907.32,817.441 M6743.323,1129.184
		c10.815-92.002,62.77-138.008,155.863-138.016c41.138,0,74.964,12.179,101.481,36.535c26.517,24.357,40.32,58.184,41.412,101.481
		L6743.323,1129.184z"/>
	<path class="st0" d="M7944.777,453.743v488.709h-3.24c-51.96-84.42-133.683-126.635-245.169-126.643
		c-102.842,0-187.81,34.91-254.905,104.73c-67.125,69.815-100.682,168.045-100.671,294.69c0,126.642,33.557,224.875,100.671,294.697
		c67.092,69.806,152.06,104.714,254.905,104.722c111.478,0,193.201-42.218,245.169-126.652h3.24v102.291h245.176V453.743H7944.777z
		 M7889.579,1342.681c-32.477,31.943-74.148,47.907-125.015,47.894c-49.797,0-90.931-15.965-123.401-47.894
		c-32.464-31.909-48.702-74.394-48.711-127.452c0-53.022,16.237-95.509,48.711-127.462c32.477-31.909,73.61-47.874,123.401-47.893
		c50.857,0,92.529,15.964,125.015,47.893c32.476,31.951,48.714,74.438,48.711,127.462
		C7938.29,1268.274,7922.053,1310.758,7889.579,1342.681"/>
	<g>
		
			<linearGradient id="SVGID_1_" gradientUnits="userSpaceOnUse" x1="-2266.1714" y1="125.3299" x2="-658.2523" y2="-2659.668" gradientTransform="matrix(0.7225 0 0 0.7225 1740.5148 2017.7239)">
			<stop  offset="0" style="stop-color:#7F4087">
				<animate attributeName="stop-color" values="#7F4087;#7D478A;#765A93;#6A79A2;#5AA3B7;#4FC2C6;#5AA3B7;#6A79A2;#765A93;#7D478A;#7F4087;" dur="15s" repeatCount="indefinite" />
			</stop>
			<stop  offset="0.1394" style="stop-color:#7D478A">
				<animate attributeName="stop-color" values="#7D478A;#765A93;#6A79A2;#5AA3B7;#4FC2C6;#7F4087;#4FC2C6;#5AA3B7;#6A79A2;#765A93;#7D478A;" dur="15s" repeatCount="indefinite" />
			</stop>
			<stop  offset="0.3388" style="stop-color:#765A93">
				<animate attributeName="stop-color" values="#765A93;#6A79A2;#5AA3B7;#4FC2C6;#7F4087;#7D478A;#7F4087;#4FC2C6;#5AA3B7;#6A79A2;#765A93;" dur="15s" repeatCount="indefinite" />
			</stop>
			<stop  offset="0.5744" style="stop-color:#6A79A2">
				<animate attributeName="stop-color" values="#6A79A2;#5AA3B7;#4FC2C6;#7F4087;#7D478A;#765A93;#7D478A;#7F4087;#4FC2C6;#5AA3B7;#6A79A2;" dur="15s" repeatCount="indefinite" />
			</stop>
			<stop  offset="0.8355" style="stop-color:#5AA3B7">
				<animate attributeName="stop-color" values="#5AA3B7;#4FC2C6;#7F4087;#7D478A;#765A93;#6A79A2;#765A93;#7D478A;#7F4087;#4FC2C6;#5AA3B7;" dur="15s" repeatCount="indefinite" />
			</stop>
			<stop  offset="1" style="stop-color:#4FC2C6">
				<animate attributeName="stop-color" values="#4FC2C6;#7F4087;#7D478A;#765A93;#6A79A2;#5AA3B7;#6A79A2;#765A93;#7D478A;#7F4087;#4FC2C6;" dur="15s" repeatCount="indefinite" />
			</stop>
			<animate attributeName="fy" dur="6s" from="90%" to="0%" repeatCount="indefinite" />
		</linearGradient>
		<path class="st1" d="M861.168,19.717L0,19.707v0.02l347.771,847.6h902.915c-64.916-150.948-215.054-256.934-389.518-256.934
			H495.295L358.382,276.647l502.786,0.002c417.718,0,757.553,339.835,757.553,757.548s-339.835,757.548-757.553,757.548
			l-502.786,0.002l136.912-333.745h365.873c174.469,0,324.609-105.991,389.523-256.945H347.861L0,2048.669v0.02l861.168-0.01
			c559.393,0,1014.486-455.094,1014.486-1014.481S1420.561,19.717,861.168,19.717z"/>
	</g>
</g>
</svg>
