<?xml version="1.0" encoding="utf-8"?><!DOCTYPE svg PUBLIC "-//W3C//DTD SVG 1.1//EN" "http://www.w3.org/Graphics/SVG/1.1/DTD/svg11.dtd"><svg version="1.1" id="Ebene_1_Kopie" xmlns="http://www.w3.org/2000/svg" xmlns:xlink="http://www.w3.org/1999/xlink" x="0px"  y="0px" width="317.83px" height="200px" viewBox="462.5 333.5 317.83 200" enable-background="new 462.5 333.5 317.83 200"  xml:space="preserve"><g> <path fill="#002A6F" d="M492.578,521.097c0,4.031-3.101,7.132-7.131,7.132h-15.814c-4.031,0-7.132-3.101-7.132-7.132V385.903  c0-4.031,3.101-7.132,7.132-7.132h15.814c4.031,0,7.131,3.101,7.131,7.132V521.097z"/> <g>  <path fill="#002A6F" d="M780.02,414.74c0-20.774-17.055-41.551-44.032-41.551c-12.403,0-19.845,4.031-22.326,6.513v-39.07   c0.311-4.031-3.101-7.132-6.821-7.132h-15.504c-4.031,0-7.132,3.101-7.132,7.132v147.907c0,31.317,29.768,44.961,48.062,44.961   l0,0c17.054,0,48.062-12.713,48.062-44.961L780.02,414.74z M750.252,487.608c0,9.922-8.062,18.295-18.294,18.295   c-9.922,0-18.295-8.062-18.295-18.295v-68.526c0-9.923,8.063-18.295,18.295-18.295c9.922,0,18.294,8.062,18.294,18.295V487.608z"   /> </g> <path fill="#002A6F" d="M594.593,378.771c4.341,0,8.062,2.48,9.302,8.063l18.295,91.782h0.62l19.225-92.094  c1.24-6.82,5.891-7.751,7.442-7.751h16.434c4.341,0,7.752,3.721,7.131,8.682l-26.356,124.652  c-5.271,19.224-20.776,18.294-21.085,18.294c-5.271,0-17.364-2.48-20.775-19.845l-16.434-77.83h-0.62l-15.814,77.83  c-3.411,17.364-15.504,19.845-20.775,19.845c-0.31,0-15.814,0.93-21.085-18.295L503.74,387.453  c-0.62-4.961,2.791-8.682,7.132-8.682h16.435c1.55,0,6.202,0.931,7.441,7.751l19.225,92.094h0.62l18.295-91.782  c0.93-5.582,4.651-8.063,9.302-8.063H594.593L594.593,378.771z"/></g></svg>