<svg xmlns="http://www.w3.org/2000/svg" width="132" height="40.3791" viewBox="0 0 132 40.3791">
  <g>
    <path d="M8.5306,23.1933H6.8736l-1.78,8.5722H0L6.1278,2.778H11.222L7.578,19.8807,9.11,19.3426,14.9481,11.06h5.674l-6.1705,8.3238-2.4848,1.5727L13.83,22.5306l3.1476,9.2349H11.5119Z" fill="#5c5e5d"/>
    <path d="M25.467,25.6748a3.0021,3.0021,0,0,0,.0213,1.7838.9164.9164,0,0,0,.89.58,5.3988,5.3988,0,0,0,2.195-.4539l-.1247,3.6531a6.9663,6.9663,0,0,1-2.1534.7391,13.8727,13.8727,0,0,1-2.7735.2854,4.5437,4.5437,0,0,1-2.7129-.683,2.9723,2.9723,0,0,1-.9312-2.5455,11.2905,11.2905,0,0,1,.2482-2.195l5.0932-24.06h5.0932Z" fill="#5c5e5d"/>
    <path d="M37.8,31.7655H32.6641L35.94,14.1741H33.17l.8493-4.0642H41.844ZM36.3037,3.1543A2.96,2.96,0,0,1,37.2642.9a3.4674,3.4674,0,0,1,4.6606,0,2.9452,2.9452,0,0,1,.9706,2.2545,2.9543,2.9543,0,0,1-.9706,2.2444,3.44,3.44,0,0,1-4.6505.01A2.9452,2.9452,0,0,1,36.3037,3.1543Z" fill="#e75d02"/>
    <path d="M52.5762,23.1933H50.9193l-1.78,8.5722H44.0457L50.1734,2.778h5.0943l-3.644,17.1027,1.5322-.5381L58.9938,11.06h5.6739l-6.17,8.3238-2.4848,1.5727,1.8636,1.5738,3.1476,9.2349H55.5575Z" fill="#5c5e5d"/>
    <path d="M64.13,26.9217a9.5141,9.5141,0,0,0,2.132.8357,10.1983,10.1983,0,0,0,2.7544.364,3.7045,3.7045,0,0,0,2.2152-.5617,2.1135,2.1135,0,0,0,.8077-1.7321,2.1987,2.1987,0,0,0-.4976-1.44,6.35,6.35,0,0,0-1.2626-1.148q-.7668-.5425-1.6356-1.102a11.0724,11.0724,0,0,1-1.6356-1.2839,6.0459,6.0459,0,0,1-1.2626-1.7187,5.3175,5.3175,0,0,1-.4976-2.4017,5.9294,5.9294,0,0,1,.538-2.5253,5.77,5.77,0,0,1,1.512-1.9882,6.9375,6.9375,0,0,1,2.36-1.284,10.0044,10.0044,0,0,1,3.1262-.455,18.7424,18.7424,0,0,1,3.9754.3516,8.6957,8.6957,0,0,1,2.4848.8908l-1.4064,3.8924a9.6469,9.6469,0,0,0-2.01-.65,11.4506,11.4506,0,0,0-2.4635-.2606,4.0654,4.0654,0,0,0-2.0916.4594,1.5789,1.5789,0,0,0-.7661,1.4626,1.6788,1.6788,0,0,0,.4965,1.1907A8.6812,8.6812,0,0,0,72.267,18.882q.765.5443,1.6356,1.102A9.389,9.389,0,0,1,75.5382,21.33a6.96,6.96,0,0,1,1.2626,1.8019,5.4574,5.4574,0,0,1,.4976,2.4219,5.9814,5.9814,0,0,1-2.2365,5.1156,9.7124,9.7124,0,0,1-5.9626,1.676,17.7172,17.7172,0,0,1-3.8721-.3932,9.1364,9.1364,0,0,1-2.7129-.9728Z" fill="#5c5e5d"/>
    <path d="M97.3408,23.4843a27.4815,27.4815,0,0,0-.4762,3.188q-.145,1.6142-.1438,3.0644c0,.3865.0045.7527.02,1.0986.0135.3438.0337.67.0606.9728H93.034l-.58-3.5609h-.1663a7.9749,7.9749,0,0,1-1.18,1.4693,11.4335,11.4335,0,0,1-1.5951,1.3255,8.1024,8.1024,0,0,1-1.8423.9526,5.8861,5.8861,0,0,1-2.0085.3505,4.6729,4.6729,0,0,1-4.0372-1.7794,7.8849,7.8849,0,0,1-1.3031-4.7629,21.71,21.71,0,0,1,.7639-5.7975,14.18,14.18,0,0,1,2.3814-4.8864,11.8947,11.8947,0,0,1,4.08-3.3756,12.7008,12.7008,0,0,1,5.8593-1.2627,20.5547,20.5547,0,0,1,3.1677.27,28.4432,28.4432,0,0,1,3.3341.7246Zm-9.73,4.6371a3.242,3.242,0,0,0,1.4064-.3123,5.0375,5.0375,0,0,0,1.2222-.8133,7.27,7.27,0,0,0,.993-1.0829q.4347-.5829.7661-1.0829L94.07,15.1211a4.3485,4.3485,0,0,0-1.0559-.3123,6.8709,6.8709,0,0,0-1.18-.1044,4.2154,4.2154,0,0,0-2.6511.8964,7.6119,7.6119,0,0,0-1.968,2.3331,12.0849,12.0849,0,0,0-1.22,3.25A16.3152,16.3152,0,0,0,85.58,24.83a5.6506,5.6506,0,0,0,.4359,2.3118A1.5911,1.5911,0,0,0,87.6106,28.1214Z" fill="#5c5e5d"/>
    <path d="M109.9715,15.284l-3.0644,17.8789a16.8186,16.8186,0,0,1-.7054,2.84,7.3027,7.3027,0,0,1-1.2627,2.2826A5.6216,5.6216,0,0,1,102.89,39.82a7.4613,7.4613,0,0,1-3.0645.5594,18.669,18.669,0,0,1-2.9206-.2269,5.9991,5.9991,0,0,1-2.4623-.9323l1.4064-3.7677a6.4554,6.4554,0,0,0,1.4086.3056q.7044.0673,1.7794.0674a2.3471,2.3471,0,0,0,2.0512-1.0537,8.61,8.61,0,0,0,1.0963-3.41l2.6106-16.0771h-2.9l.9122-4.2237h2.6488l.5392-2.7746a14.36,14.36,0,0,1,.7459-2.6713A5.5686,5.5686,0,0,1,107.963,3.71a4.731,4.731,0,0,1,1.8625-1.1391,8.5153,8.5153,0,0,1,2.7117-.3729q.6639,0,1.512.0617t1.6783.2079c.55.0966,1.09.2134,1.6131.3516a8.4247,8.4247,0,0,1,1.4086.4965l-1.2,3.7687a7.6994,7.6994,0,0,0-1.9478-.53,14.8557,14.8557,0,0,0-1.9456-.1325,2.2589,2.2589,0,0,0-1.9254.7942,5.4852,5.4852,0,0,0-.8493,2.4657l-.2493,1.3783h4.1428l-.829,4.2237Z" fill="#5c5e5d"/>
    <path d="M129.0187,29.7794a11.116,11.116,0,0,1-3.3138,1.8221,13.67,13.67,0,0,1-4.72.7436,7.0454,7.0454,0,0,1-5.28-1.9658,7.5154,7.5154,0,0,1-1.9254-5.4864,16.4085,16.4085,0,0,1,1.0357-5.985,14.5468,14.5468,0,0,1,2.7117-4.5349,12.1883,12.1883,0,0,1,3.79-2.878,9.6747,9.6747,0,0,1,4.2237-1.0144,8.7382,8.7382,0,0,1,2.9184.4348,5.4766,5.4766,0,0,1,2.0085,1.2008,4.7718,4.7718,0,0,1,1.1593,1.76A5.9442,5.9442,0,0,1,132,15.9883a5.1847,5.1847,0,0,1-.8695,2.9813,6.7978,6.7978,0,0,1-2.4219,2.1332,13.1107,13.1107,0,0,1-3.7474,1.2829,24.7758,24.7758,0,0,1-4.8056.4347c-.22,0-.4268-.0056-.62-.02s-.4-.02-.62-.02c-.0562.3336-.0989.6324-.1258.8975a7.2029,7.2029,0,0,0-.04.73,3.6754,3.6754,0,0,0,.9728,2.7971,3.8624,3.8624,0,0,0,2.7544.9166,9.1814,9.1814,0,0,0,3.2712-.55,9.4631,9.4631,0,0,0,2.1949-1.1054Zm-9.36-10.23q1.1594,0,2.4646-.0809a12.0171,12.0171,0,0,0,2.4219-.3876,5.15,5.15,0,0,0,1.8647-.8952,1.94,1.94,0,0,0,.7437-1.6075,2.1246,2.1246,0,0,0-.4539-1.2424,2.259,2.259,0,0,0-1.9051-.6313,4.2727,4.2727,0,0,0-3.1678,1.385A8.2631,8.2631,0,0,0,119.6591,19.5493Z" fill="#5c5e5d"/>
  </g>
</svg>
