<?xml version="1.0" encoding="UTF-8" standalone="no"?>
<!DOCTYPE svg PUBLIC "-//W3C//DTD SVG 1.1//EN" "http://www.w3.org/Graphics/SVG/1.1/DTD/svg11.dtd">
<svg width="100%" height="100%" viewBox="0 0 98 98" version="1.1" xmlns="http://www.w3.org/2000/svg" xmlns:xlink="http://www.w3.org/1999/xlink" xml:space="preserve" style="fill-rule:evenodd;clip-rule:evenodd;stroke-linejoin:round;stroke-miterlimit:1.41421;">
    <g>
        <rect x="41.569" y="47.753" width="14.333" height="14.333" style="fill:rgb(250,180,40);"/>
        <rect x="41.569" y="67.754" width="14.333" height="14.332" style="fill:rgb(250,180,40);"/>
        <rect x="18.569" y="67.754" width="14.333" height="14.332" style="fill:rgb(250,180,40);"/>
        <rect x="18.569" y="47.753" width="14.333" height="14.333" style="fill:rgb(250,180,40);"/>
        <path d="M95.472,14.466L84.427,14.466L84.427,2.701C84.427,1.597 83.531,0.701 82.427,0.701L65.811,0.701C64.707,0.701 63.811,1.597 63.811,2.701L63.811,14.466L33.662,14.466L33.662,2.701C33.662,1.597 32.766,0.701 31.662,0.701L15.045,0.701C13.941,0.701 13.045,1.597 13.045,2.701L13.045,14.466L2,14.466C0.896,14.466 0,15.362 0,16.466L0,94.771C0,95.875 0.896,96.771 2,96.771L95.473,96.771C96.577,96.771 97.473,95.875 97.473,94.771L97.473,16.466C97.472,15.362 96.576,14.466 95.472,14.466ZM69.645,8.037C69.645,7.209 70.317,6.537 71.145,6.537L77.092,6.537C77.921,6.537 78.592,7.209 78.592,8.037L78.592,28.377C78.592,29.205 77.921,29.877 77.092,29.877L71.145,29.877C70.317,29.877 69.645,29.205 69.645,28.377L69.645,8.037ZM18.88,8.037C18.88,7.209 19.551,6.537 20.38,6.537L26.327,6.537C27.156,6.537 27.827,7.209 27.827,8.037L27.827,28.377C27.827,29.205 27.156,29.877 26.327,29.877L20.38,29.877C19.551,29.877 18.88,29.205 18.88,28.377L18.88,8.037ZM87.068,84.902C87.068,85.73 86.398,86.402 85.568,86.402L11.903,86.402C11.074,86.402 10.403,85.73 10.403,84.902L10.403,44.902C10.403,44.074 11.074,43.402 11.903,43.402L85.569,43.402C86.399,43.402 87.069,44.074 87.069,44.902L87.069,84.902L87.068,84.902Z" style="fill:rgb(250,180,40);fill-rule:nonzero;"/>
        <rect x="64.568" y="47.753" width="14.334" height="14.333" style="fill:rgb(250,180,40);"/>
        <rect x="64.568" y="67.754" width="14.334" height="14.332" style="fill:rgb(250,180,40);"/>
    </g>
</svg>
