<?xml version="1.0" encoding="utf-8"?>
<!-- Generator: Adobe Illustrator 23.0.1, SVG Export Plug-In . SVG Version: 6.00 Build 0)  -->
<svg version="1.1" id="Layer_1" xmlns="http://www.w3.org/2000/svg" xmlns:xlink="http://www.w3.org/1999/xlink" x="0px" y="0px"
	 viewBox="0 0 385.6 156.2" style="enable-background:new 0 0 385.6 156.2;" xml:space="preserve">
<style type="text/css">
	.st0{clip-path:url(#SVGID_2_);}
	.st1{fill:none;stroke:#FFFFFF;stroke-width:2.09;stroke-linejoin:round;stroke-dasharray:6.04,3.95;}
	.st2{fill:none;stroke:#FFFFFF;stroke-width:2.09;stroke-linejoin:round;}
	.st3{fill:none;stroke:#FFFFFF;stroke-width:1.67;}
	.st4{clip-path:url(#SVGID_4_);}
	.st5{fill:none;stroke:#FFFFFF;stroke-width:2.93;stroke-linecap:round;stroke-linejoin:round;}
	.st6{fill:none;stroke:#FFFFFF;stroke-width:2.93;stroke-linecap:round;stroke-linejoin:round;stroke-dasharray:0,8.29;}
	.st7{clip-path:url(#SVGID_6_);}
	.st8{fill:none;stroke:#FFFFFF;stroke-width:2.93;}
	.st9{fill:#FFFFFF;}
	.st10{font-family:'SegoeUI-Bold';}
	.st11{font-size:10px;}
	.st12{font-family:'SegoeUI';}
	.st13{font-size:7px;}
	.st14{font-size:6px;}
	.st15{font-size:12px;}
</style>
<title>Element 1</title>
<g>
	<defs>
		<rect id="SVGID_1_" y="0" width="385.6" height="156.3"/>
	</defs>
	<clipPath id="SVGID_2_">
		<use xlink:href="#SVGID_1_"  style="overflow:visible;"/>
	</clipPath>
	<g class="st0">
		<line class="st1" x1="348.5" y1="77.7" x2="340.5" y2="77.7"/>
		<line class="st1" x1="327.5" y1="62.8" x2="327.5" y2="54.7"/>
		<line class="st1" x1="342.4" y1="41.8" x2="350.5" y2="41.8"/>
		<line class="st1" x1="363.4" y1="56.7" x2="363.4" y2="64.7"/>
		<path class="st2" d="M359,76.9c-1.1,0.5-2.3,0.8-3.5,0.8h-3 M363.5,66.7v3c0,1.2-0.3,2.4-0.8,3.5 M362.6,46.2
			c0.5,1.1,0.8,2.3,0.8,3.5v3 M352.5,41.8h3c1.2,0,2.4,0.3,3.5,0.8 M332,42.6c1.1-0.5,2.3-0.8,3.5-0.8h3 M327.5,52.8v-3
			c0-1.2,0.3-2.4,0.8-3.5 M328.4,73.2c-0.5-1.1-0.8-2.3-0.8-3.5v-3 M338.5,77.7h-3c-1.2,0-2.4-0.3-3.5-0.8"/>
		<circle class="st3" cx="36.4" cy="59.7" r="18.8"/>
		<ellipse class="st3" cx="36.4" cy="59.7" rx="9.3" ry="18.8"/>
	</g>
</g>
<line class="st3" x1="20.5" y1="70" x2="52.3" y2="70"/>
<line class="st3" x1="20.5" y1="49.3" x2="52.3" y2="49.3"/>
<line class="st3" x1="16.8" y1="59.6" x2="55.1" y2="59.6"/>
<g>
	<defs>
		<rect id="SVGID_3_" x="0" y="0" width="385.6" height="156.3"/>
	</defs>
	<clipPath id="SVGID_4_">
		<use xlink:href="#SVGID_3_"  style="overflow:visible;"/>
	</clipPath>
	<g class="st4">
		<path class="st5" d="M272.6,110.1v17.6 M233.9,81.3v28.8h38.7 M224.1,81.3h12.6c11.5-0.2,20.6-9.7,20.4-21.2
			c-0.2-9.4-6.7-17.5-15.8-19.8"/>
		<path class="st5" d="M167,21.9c10.6-19.1,34.7-26,53.8-15.5c12.3,6.8,20.1,19.7,20.4,33.8"/>
		<path class="st5" d="M141.7,34.9c0.4-9,8-16.1,17-15.7c3,0.1,5.8,1.1,8.3,2.7"/>
		<path class="st5" d="M109.1,127.6v-17.6h38.7 M147.8,110.1V81.2c-13.1-0.3-23.4-11.1-23.1-24.1c0.2-10.3,7.1-19.3,17.1-22.2"/>
	</g>
</g>
<line class="st6" x1="72.9" y1="59.7" x2="110.2" y2="59.7"/>
<path class="st5" d="M114.4,59.7L114.4,59.7 M64.6,59.7L64.6,59.7"/>
<line class="st6" x1="275.5" y1="59.7" x2="312.8" y2="59.7"/>
<path class="st5" d="M317,59.7L317,59.7 M267.3,59.7L267.3,59.7"/>
<polyline class="st5" points="153.8,81.3 163.6,81.3 163.6,127.6 "/>
<polyline class="st5" points="169.3,81.3 212.4,81.3 208.3,81.3 218.1,81.3 218.1,127.6 "/>
<g>
	<defs>
		<rect id="SVGID_5_" y="0" width="385.6" height="156.3"/>
	</defs>
	<clipPath id="SVGID_6_">
		<use xlink:href="#SVGID_5_"  style="overflow:visible;"/>
	</clipPath>
	<g class="st7">
		<circle class="st8" cx="109.1" cy="134.3" r="5.2"/>
		<circle class="st8" cx="163.6" cy="134.3" r="5.2"/>
		<circle class="st8" cx="218.1" cy="134.3" r="5.2"/>
		<circle class="st8" cx="272.6" cy="134.3" r="5.2"/>
	</g>
</g>
<text transform="matrix(1 0 0 1 320.9557 91.1389)" class="st9 st10 st11">Extensions</text>
<text transform="matrix(1 0 0 1 320.1492 102.643)"><tspan x="0" y="0" class="st9 st12 st13">GPON | P2P | DSL </tspan><tspan x="-9.4" y="9" class="st9 st12 st13">DOCSIS | ZIB | Ticketing</tspan></text>
<text transform="matrix(1 0 0 1 189.4603 69.6573)" class="st9 st12 st14">cloud | self hosted</text>
<text transform="matrix(1 0 0 1 12.2557 101.4044)" class="st9 st12 st13">webbased client</text>
<text transform="matrix(1 0 0 1 143.4884 58.8408)" class="st9 st10 st15">Easy.Provisioning</text>
<text transform="matrix(1 0 0 1 98.91 153.8913)" class="st9 st10 st11">ACS</text>
<text transform="matrix(1 0 0 1 154.5064 153.8912)" class="st9 st10 st11">API</text>
<text transform="matrix(1 0 0 1 213.9192 153.8917)" class="st9 st10 st11">IP</text>
<text transform="matrix(1 0 0 1 251.3594 153.8918)" class="st9 st10 st11">Analytics</text>
<text transform="matrix(1 0 0 1 14.47 91.1396)" class="st9 st10 st11">Easy.Web</text>
</svg>
